<svg xmlns="http://www.w3.org/2000/svg" viewBox="0 0 256 256" role="img" aria-label="Briefcase icon">
  <title>Briefcase icon</title>
  <defs>
    <linearGradient id="g" x1="0" y1="0" x2="1" y2="1">
      <stop offset="0" stop-color="#003580"/>
      <stop offset="1" stop-color="#009639"/>
    </linearGradient>
  </defs>
  <path fill="url(#g)" d="M88 56a24 24 0 0 1 24-24h32a24 24 0 0 1 24 24v16h32a24 24 0 0 1 24 24v80a32 32 0 0 1-32 32H56a32 32 0 0 1-32-32V96a24 24 0 0 1 24-24h32V56zm24-8a8 8 0 0 0-8 8v16h48V56a8 8 0 0 0-8-8h-32z"/>
  <path fill="#ffffff" d="M104 120a8 8 0 0 1 8-8h32a8 8 0 0 1 8 8v16a8 8 0 0 1-8 8h-32a8 8 0 0 1-8-8v-16zm16 8v0h16v-0h-16z"/>
</svg>

