<svg xmlns="http://www.w3.org/2000/svg" viewBox="0 0 128 128" role="img" aria-label="Support">
  <defs>
    <linearGradient id="g" x1="0" y1="0" x2="1" y2="1">
      <stop offset="0" stop-color="#003580"/>
      <stop offset="1" stop-color="#009639"/>
    </linearGradient>
  </defs>
  <circle cx="64" cy="64" r="56" fill="url(#g)"/>
  <!-- gear -->
  <g fill="#ffffff" opacity="0.95">
    <path d="M73.8 26l2.4 10.4c2.2.7 4.3 1.7 6.2 2.9l9.4-5.4 8.5 8.5-5.4 9.4c1.2 1.9 2.2 4 2.9 6.2L110 60.2v12l-10.4 2.4c-.7 2.2-1.7 4.3-2.9 6.2l5.4 9.4-8.5 8.5-9.4-5.4c-1.9 1.2-4 2.2-6.2 2.9L73.8 110h-12l-2.4-10.4c-2.2-.7-4.3-1.7-6.2-2.9l-9.4 5.4-8.5-8.5 5.4-9.4c-1.2-1.9-2.2-4-2.9-6.2L26 73.8v-12l10.4-2.4c.7-2.2 1.7-4.3 2.9-6.2l-5.4-9.4 8.5-8.5 9.4 5.4c1.9-1.2 4-2.2 6.2-2.9L61.8 26h12z"/>
  </g>
  <circle cx="64" cy="66" r="16" fill="#003580" opacity="0.25"/>
  <circle cx="64" cy="66" r="9" fill="#ffffff" opacity="0.95"/>
</svg>

